<svg width="305" height="79" viewBox="0 0 305 79" fill="none" xmlns="http://www.w3.org/2000/svg">
<path d="M0 10C0 4.47715 4.47715 0 10 0H295C300.523 0 305 4.47715 305 10V79H0V10Z" fill="#8DF1FD"/>
<path d="M39.32 22.92V51H32.48V22.92H39.32ZM57.8769 28.44C60.4902 28.44 62.5702 29.2933 64.1169 31C65.6902 32.68 66.4769 35 66.4769 37.96V51H59.6769V38.88C59.6769 37.3867 59.2902 36.2267 58.5169 35.4C57.7435 34.5733 56.7035 34.16 55.3969 34.16C54.0902 34.16 53.0502 34.5733 52.2769 35.4C51.5035 36.2267 51.1169 37.3867 51.1169 38.88V51H44.2769V28.68H51.1169V31.64C51.8102 30.6533 52.7435 29.88 53.9169 29.32C55.0902 28.7333 56.4102 28.44 57.8769 28.44ZM82.43 34.36H78.75V51H71.91V34.36H69.43V28.68H71.91V28.04C71.91 25.2933 72.6967 23.2133 74.27 21.8C75.8433 20.36 78.15 19.64 81.19 19.64C81.6967 19.64 82.07 19.6533 82.31 19.68V25.48C81.0033 25.4 80.0833 25.5867 79.55 26.04C79.0167 26.4933 78.75 27.3067 78.75 28.48V28.68H82.43V34.36ZM95.8041 51.32C93.6174 51.32 91.6441 50.8533 89.8841 49.92C88.1507 48.9867 86.7774 47.6533 85.7641 45.92C84.7774 44.1867 84.2841 42.16 84.2841 39.84C84.2841 37.5467 84.7907 35.5333 85.8041 33.8C86.8174 32.04 88.2041 30.6933 89.9641 29.76C91.7241 28.8267 93.6974 28.36 95.8841 28.36C98.0707 28.36 100.044 28.8267 101.804 29.76C103.564 30.6933 104.951 32.04 105.964 33.8C106.977 35.5333 107.484 37.5467 107.484 39.84C107.484 42.1333 106.964 44.16 105.924 45.92C104.911 47.6533 103.511 48.9867 101.724 49.92C99.9641 50.8533 97.9907 51.32 95.8041 51.32ZM95.8041 45.4C97.1107 45.4 98.2174 44.92 99.1241 43.96C100.057 43 100.524 41.6267 100.524 39.84C100.524 38.0533 100.071 36.68 99.1641 35.72C98.2841 34.76 97.1907 34.28 95.8841 34.28C94.5507 34.28 93.4441 34.76 92.5641 35.72C91.6841 36.6533 91.2441 38.0267 91.2441 39.84C91.2441 41.6267 91.6707 43 92.5241 43.96C93.4041 44.92 94.4974 45.4 95.8041 45.4ZM117.953 32.4C118.753 31.1733 119.753 30.2133 120.953 29.52C122.153 28.8 123.486 28.44 124.953 28.44V35.68H123.073C121.366 35.68 120.086 36.0533 119.233 36.8C118.379 37.52 117.953 38.8 117.953 40.64V51H111.113V28.68H117.953V32.4ZM156.702 28.44C159.476 28.44 161.676 29.28 163.302 30.96C164.956 32.64 165.782 34.9733 165.782 37.96V51H158.982V38.88C158.982 37.44 158.596 36.3333 157.822 35.56C157.076 34.76 156.036 34.36 154.702 34.36C153.369 34.36 152.316 34.76 151.542 35.56C150.796 36.3333 150.422 37.44 150.422 38.88V51H143.622V38.88C143.622 37.44 143.236 36.3333 142.462 35.56C141.716 34.76 140.676 34.36 139.342 34.36C138.009 34.36 136.956 34.76 136.182 35.56C135.436 36.3333 135.062 37.44 135.062 38.88V51H128.222V28.68H135.062V31.48C135.756 30.5467 136.662 29.8133 137.782 29.28C138.902 28.72 140.169 28.44 141.582 28.44C143.262 28.44 144.756 28.8 146.062 29.52C147.396 30.24 148.436 31.2667 149.182 32.6C149.956 31.3733 151.009 30.3733 152.342 29.6C153.676 28.8267 155.129 28.44 156.702 28.44ZM169.206 39.8C169.206 37.5067 169.633 35.4933 170.486 33.76C171.366 32.0267 172.553 30.6933 174.046 29.76C175.539 28.8267 177.206 28.36 179.046 28.36C180.619 28.36 181.993 28.68 183.166 29.32C184.366 29.96 185.286 30.8 185.926 31.84V28.68H192.766V51H185.926V47.84C185.259 48.88 184.326 49.72 183.126 50.36C181.953 51 180.579 51.32 179.006 51.32C177.193 51.32 175.539 50.8533 174.046 49.92C172.553 48.96 171.366 47.6133 170.486 45.88C169.633 44.12 169.206 42.0933 169.206 39.8ZM185.926 39.84C185.926 38.1333 185.446 36.7867 184.486 35.8C183.553 34.8133 182.406 34.32 181.046 34.32C179.686 34.32 178.526 34.8133 177.566 35.8C176.633 36.76 176.166 38.0933 176.166 39.8C176.166 41.5067 176.633 42.8667 177.566 43.88C178.526 44.8667 179.686 45.36 181.046 45.36C182.406 45.36 183.553 44.8667 184.486 43.88C185.446 42.8933 185.926 41.5467 185.926 39.84ZM210.154 45.2V51H206.674C204.194 51 202.261 50.4 200.874 49.2C199.488 47.9733 198.794 45.9867 198.794 43.24V34.36H196.074V28.68H198.794V23.24H205.634V28.68H210.114V34.36H205.634V43.32C205.634 43.9867 205.794 44.4667 206.114 44.76C206.434 45.0533 206.968 45.2 207.714 45.2H210.154ZM217.404 26.36C216.204 26.36 215.218 26.0133 214.444 25.32C213.698 24.6 213.324 23.72 213.324 22.68C213.324 21.6133 213.698 20.7333 214.444 20.04C215.218 19.32 216.204 18.96 217.404 18.96C218.578 18.96 219.538 19.32 220.284 20.04C221.058 20.7333 221.444 21.6133 221.444 22.68C221.444 23.72 221.058 24.6 220.284 25.32C219.538 26.0133 218.578 26.36 217.404 26.36ZM220.804 28.68V51H213.964V28.68H220.804ZM235.921 51.32C233.735 51.32 231.761 50.8533 230.001 49.92C228.268 48.9867 226.895 47.6533 225.881 45.92C224.895 44.1867 224.401 42.16 224.401 39.84C224.401 37.5467 224.908 35.5333 225.921 33.8C226.935 32.04 228.321 30.6933 230.081 29.76C231.841 28.8267 233.815 28.36 236.001 28.36C238.188 28.36 240.161 28.8267 241.921 29.76C243.681 30.6933 245.068 32.04 246.081 33.8C247.095 35.5333 247.601 37.5467 247.601 39.84C247.601 42.1333 247.081 44.16 246.041 45.92C245.028 47.6533 243.628 48.9867 241.841 49.92C240.081 50.8533 238.108 51.32 235.921 51.32ZM235.921 45.4C237.228 45.4 238.335 44.92 239.241 43.96C240.175 43 240.641 41.6267 240.641 39.84C240.641 38.0533 240.188 36.68 239.281 35.72C238.401 34.76 237.308 34.28 236.001 34.28C234.668 34.28 233.561 34.76 232.681 35.72C231.801 36.6533 231.361 38.0267 231.361 39.84C231.361 41.6267 231.788 43 232.641 43.96C233.521 44.92 234.615 45.4 235.921 45.4ZM264.83 28.44C267.443 28.44 269.523 29.2933 271.07 31C272.643 32.68 273.43 35 273.43 37.96V51H266.63V38.88C266.63 37.3867 266.243 36.2267 265.47 35.4C264.697 34.5733 263.657 34.16 262.35 34.16C261.043 34.16 260.003 34.5733 259.23 35.4C258.457 36.2267 258.07 37.3867 258.07 38.88V51H251.23V28.68H258.07V31.64C258.763 30.6533 259.697 29.88 260.87 29.32C262.043 28.7333 263.363 28.44 264.83 28.44Z" fill="black"/>
</svg>
