<svg width="1041" height="1300" viewBox="0 0 1041 1300" fill="none" xmlns="http://www.w3.org/2000/svg">
<path fill-rule="evenodd" clip-rule="evenodd" d="M455.348 13.9732C606.009 79.5302 531.53 341.495 652.572 452.625C749.185 541.326 958.93 426.143 1026.64 538.482C1088.98 641.915 929.719 751.991 904.146 870.027C873.817 1010.02 992.644 1223.61 864.398 1287.34C725.821 1356.19 607.097 1123.26 455.348 1093.02C351.468 1072.32 234.622 1208.29 149.735 1144.92C64.5166 1081.31 137.698 939.03 111.118 836.041C87.173 743.261 8.53702 672.886 3.21837 577.212C-4.0361 446.716 -5.95377 303.588 75.8528 201.677C166.424 88.8487 322.697 -43.7472 455.348 13.9732Z" fill="url(#paint0_radial)" fill-opacity="0.5"/>
<defs>
<radialGradient id="paint0_radial" cx="0" cy="0" r="1" gradientUnits="userSpaceOnUse" gradientTransform="translate(595.25 328.5) rotate(42.6105) scale(360.407 288.603)">
<stop stop-color="#83F2FF"/>
<stop offset="1" stop-color="#82FF6F"/>
</radialGradient>
</defs>
</svg>
