<svg width="1920" height="1080" viewBox="0 0 1920 1080" fill="none" xmlns="http://www.w3.org/2000/svg">
<path fill-rule="evenodd" clip-rule="evenodd" d="M205.348 419.973C356.009 485.53 281.53 747.495 402.572 858.625C499.185 947.326 708.93 832.143 776.639 944.482C838.979 1047.91 679.719 1157.99 654.146 1276.03C623.817 1416.02 742.644 1629.61 614.398 1693.34C475.821 1762.19 357.097 1529.26 205.348 1499.02C101.468 1478.32 -15.3782 1614.29 -100.265 1550.92C-185.483 1487.31 -112.302 1345.03 -138.882 1242.04C-162.827 1149.26 -241.463 1078.89 -246.782 983.212C-254.036 852.716 -255.954 709.588 -174.147 607.677C-83.5761 494.849 72.6969 362.253 205.348 419.973Z" fill="url(#paint0_linear)" fill-opacity="0.5"/>
<path fill-rule="evenodd" clip-rule="evenodd" d="M1870.35 -512.027C2021.01 -446.47 1946.53 -184.505 2067.57 -73.3749C2164.18 15.3263 2373.93 -99.8575 2441.64 12.4824C2503.98 115.915 2344.72 225.991 2319.15 344.027C2288.82 484.015 2407.64 697.614 2279.4 761.335C2140.82 830.19 2022.1 597.259 1870.35 567.02C1766.47 546.319 1649.62 682.295 1564.74 618.924C1479.52 555.306 1552.7 413.03 1526.12 310.041C1502.17 217.261 1423.54 146.886 1418.22 51.2118C1410.96 -79.2845 1409.05 -222.412 1490.85 -324.323C1581.42 -437.151 1737.7 -569.747 1870.35 -512.027Z" fill="url(#paint1_linear)" fill-opacity="0.5"/>
<defs>
<linearGradient id="paint0_linear" x1="80" y1="490.5" x2="610.5" y2="978.5" gradientUnits="userSpaceOnUse">
<stop stop-color="#83F2FF"/>
<stop offset="1" stop-color="#82FF6F"/>
</linearGradient>
<linearGradient id="paint1_linear" x1="1587.5" y1="80" x2="1594" y2="601" gradientUnits="userSpaceOnUse">
<stop offset="0.0687842" stop-color="#8DF1FD"/>
<stop offset="1" stop-color="#78FF64"/>
</linearGradient>
</defs>
</svg>
